<?xml version="1.0" standalone="no"?>
<svg viewBox="0 0 200 200" xmlns="http://www.w3.org/2000/svg">
  <path fill="#F1C21B" d="M48,-75.5C60.1,-66.8,66.4,-50,73.6,-33.8C80.7,-17.5,88.7,-1.8,84.7,10.8C80.8,23.5,65,33,52.4,42.6C39.7,52.1,30.3,61.5,19.1,64.5C7.9,67.6,-5,64.2,-16.3,59.2C-27.7,54.2,-37.5,47.6,-49,39.6C-60.5,31.5,-73.6,22,-76.1,10.4C-78.7,-1.2,-70.7,-15,-63.8,-28.7C-56.8,-42.4,-50.8,-56.1,-40.4,-65.5C-29.9,-75,-15,-80.1,1.5,-82.4C17.9,-84.6,35.8,-84.1,48,-75.5Z" transform="translate(100 100)" />
</svg>
